<svg width="125" height="45" fill="none" xmlns="http://www.w3.org/2000/svg" xmlns:xlink="http://www.w3.org/1999/xlink"><g clip-path="url(#rasa-docs-logo_svg__clip0)"><path d="M57.095 14.797v14.19h3.342V24.71h7.242v4.247h3.342v-14.16H57.095zM67.68 21.31h-7.242v-3.115h7.242v3.115zm-13.648 1.274v6.372H40.385v-3.398H50.69v-1.982H40.385v-8.779h13.647v3.398H43.727v1.982h10.305v2.407zm-30.637-7.787v14.19h3.342V24.71h7.242v4.247h3.342v-14.16H23.395zM33.98 21.31h-7.242v-3.115h7.242v3.115zm-18.13 2.249l4.278-1.583.203-.082v-7.097H6.684v14.16h3.298v-3.232l2.507-.923 3.773 4.154h4.128l-4.54-5.397zm-5.849-1.45v-3.914h6.988v1.325l-6.988 2.589z" fill="#32415B"/><path d="M67.303 32.225h6.659V11.806H3.743v20.419h50.133l13.421 6.745v-6.745h.006zM0 8h77.705v28.036h-6.66V45.1l-18.038-9.063H0V8z" fill="#32415B"/><path d="M86.884 24.827v-5.586h.63c1.736 0 2.492.812 2.492 2.716v.112c0 1.862-.756 2.758-2.464 2.758h-.658zM84 27.039h3.626c3.528 0 5.376-1.89 5.376-5.012v-.112c0-3.108-1.806-4.886-5.362-4.886H84v10.01zm15.178-1.961c-1.386 0-2.31-1.05-2.31-2.87v-.112c0-1.82.882-2.842 2.296-2.842 1.414 0 2.31 1.05 2.31 2.828v.112c0 1.792-.882 2.884-2.296 2.884zm-.056 2.254c3.234 0 5.348-2.1 5.348-5.18v-.112c0-3.108-2.254-5.026-5.306-5.026-2.996 0-5.292 2.044-5.292 5.096v.112c0 3.01 2.016 5.11 5.25 5.11zm11.457 0c2.59 0 4.466-1.344 4.662-3.934h-2.856c-.14 1.106-.854 1.638-1.862 1.638-1.372 0-2.142-1.022-2.142-2.828v-.112c0-1.82.812-2.828 2.1-2.828 1.008 0 1.568.56 1.68 1.582h2.954c-.238-2.646-2.044-3.85-4.648-3.85-2.926 0-5.11 2.03-5.11 5.11v.112c0 3.066 1.722 5.11 5.222 5.11zm9.587 0c2.576 0 4.032-1.498 4.032-3.332 0-2.17-1.302-2.828-3.836-3.108-1.246-.168-1.554-.42-1.554-.98 0-.504.392-.854 1.162-.854.784 0 1.19.364 1.288 1.078h2.66c-.182-2.114-1.54-3.122-3.948-3.122-2.394 0-3.878 1.316-3.878 3.122 0 2.016.952 2.856 3.78 3.192 1.204.182 1.582.35 1.582.966 0 .588-.462.994-1.288.994-1.19 0-1.512-.588-1.582-1.302h-2.73c.084 2.17 1.512 3.346 4.312 3.346z" fill="#5A17EE"/></g><defs><clipPath id="rasa-docs-logo_svg__clip0"><path fill="#fff" d="M0 0h125v45H0z"/></clipPath></defs></svg>
